<svg xmlns="http://www.w3.org/2000/svg" xmlns:xlink="http://www.w3.org/1999/xlink" width="70" height="70" viewBox="0 0 70 70">
  <defs>
    <clipPath id="clip-path">
      <rect id="Rectangle_1131" data-name="Rectangle 1131" width="26.636" height="19.977" transform="translate(0)" fill="#fff" stroke="#ffab00" stroke-width="1"/>
    </clipPath>
  </defs>
  <g id="Group_2431" data-name="Group 2431" transform="translate(-373 -124)">
    <g id="Rectangle_1219" data-name="Rectangle 1219" transform="translate(373 124)" fill="#fff" stroke="#707070" stroke-width="1" opacity="0">
      <rect width="70" height="70" stroke="none"/>
      <rect x="0.5" y="0.5" width="69" height="69" fill="none"/>
    </g>
    <g id="Group_2364" data-name="Group 2364" transform="translate(-11.539)">
      <g id="Group_2363" data-name="Group 2363" transform="translate(397.539 130)">
        <path id="Path_406" data-name="Path 406" d="M-5622.461,7255.233v-8.605h32.558v14.913l-.006.176s-.232,17.25-16.12,17.25c-15.9,0-16.432-16.343-16.432-16.343" transform="translate(5622.461 -7221.966)" fill="none" stroke="#f89939" stroke-width="3"/>
        <g id="Mask_Group_11" data-name="Mask Group 11" transform="translate(4.545 4.994)" clip-path="url(#clip-path)">
          <g id="Path_407" data-name="Path 407" transform="translate(1.665 2.497)" fill="none">
            <path d="M9.988,0h.832a9.988,9.988,0,0,1,9.988,9.988v5.827A9.988,9.988,0,0,1,10.821,25.8H9.988A9.988,9.988,0,0,1,0,15.815V9.988A9.988,9.988,0,0,1,9.988,0Z" stroke="none"/>
            <path d="M 9.988320350646973 3 C 6.134949684143066 3 3 6.134950637817383 3 9.988320350646973 L 3 15.81484127044678 C 3 19.66821098327637 6.134949684143066 22.80316162109375 9.988320350646973 22.80316162109375 L 10.82067966461182 22.80316162109375 C 14.67404937744141 22.80316162109375 17.80900001525879 19.66821098327637 17.80900001525879 15.81484127044678 L 17.80900001525879 9.988320350646973 C 17.80900001525879 6.134950637817383 14.67404937744141 3 10.82067966461182 3 L 9.988320350646973 3 M 9.988320350646973 0 L 10.82067966461182 0 C 16.33708000183105 0 20.80900001525879 4.471920013427734 20.80900001525879 9.988320350646973 L 20.80900001525879 15.81484127044678 C 20.80900001525879 21.33124160766602 16.33708000183105 25.80316162109375 10.82067966461182 25.80316162109375 L 9.988320350646973 25.80316162109375 C 4.471920013427734 25.80316162109375 0 21.33124160766602 0 15.81484127044678 L 0 9.988320350646973 C 0 4.471920013427734 4.471920013427734 0 9.988320350646973 0 Z" stroke="none" fill="#f89939"/>
          </g>
        </g>
        <g id="Group_2362" data-name="Group 2362" transform="translate(12.037 34.127)">
          <g id="Ellipse_246" data-name="Ellipse 246" fill="none" stroke="#223d77" stroke-width="3">
            <circle cx="4.162" cy="4.162" r="4.162" stroke="none"/>
            <circle cx="4.162" cy="4.162" r="2.662" fill="none"/>
          </g>
          <line id="Line_226" data-name="Line 226" y2="5.827" transform="translate(4.578 7.907)" fill="none" stroke="#223d77" stroke-width="3"/>
        </g>
        <text id="_" data-name="?" transform="translate(35.019 20)" fill="#f89939" font-size="26" font-family="NeusaNextStd-Medium, Neusa Next Std" font-weight="500"><tspan x="-8.229" y="0">?</tspan></text>
      </g>
    </g>
  </g>
</svg>
